<?xml version="1.0" standalone="no"?>
<!DOCTYPE svg PUBLIC "-//W3C//DTD SVG 20010904//EN"
 "http://www.w3.org/TR/2001/REC-SVG-20010904/DTD/svg10.dtd">
<svg version="1.0" xmlns="http://www.w3.org/2000/svg"
 width="243.000000pt" height="207.000000pt" viewBox="0 0 243.000000 207.000000"
 preserveAspectRatio="xMidYMid meet">

<g transform="translate(0.000000,207.000000) scale(0.100000,-0.100000)"
fill="#000000" stroke="none">
<path d="M1685 2055 c-239 -44 -417 -209 -433 -401 l-5 -64 41 0 40 0 7 53
c19 149 147 273 332 321 88 23 264 21 342 -3 152 -47 275 -178 317 -336 22
-80 18 -244 -7 -318 -52 -155 -175 -271 -334 -313 -40 -11 -239 -14 -1002 -14
-852 0 -953 -2 -967 -16 -22 -22 -20 -41 8 -59 21 -14 127 -15 982 -13 l959 3
65 22 c180 62 299 179 368 361 22 58 26 83 26 192 1 142 -9 190 -62 295 -47
92 -155 201 -243 244 -118 58 -278 75 -434 46z"/>
<path d="M710 1757 c-92 -21 -182 -92 -196 -155 -3 -15 -7 -33 -10 -40 -8 -25
15 -62 39 -62 31 0 47 18 47 53 0 41 62 101 120 117 63 17 140 9 179 -19 100
-72 95 -267 -9 -322 -32 -18 -65 -19 -442 -19 -356 0 -409 -2 -422 -16 -20
-20 -20 -38 0 -58 13 -14 65 -16 412 -16 259 0 411 4 437 11 102 29 173 119
182 233 16 199 -142 337 -337 293z"/>
<path d="M1575 1575 c-83 -32 -137 -110 -150 -217 -5 -49 -4 -59 14 -77 13
-13 27 -18 38 -14 26 10 33 23 33 71 0 56 20 102 59 135 29 24 40 27 112 27
91 0 121 -12 168 -65 28 -32 31 -42 31 -102 0 -79 -22 -119 -85 -155 l-40 -23
-869 -5 c-813 -5 -870 -6 -880 -22 -8 -13 -8 -23 0 -35 10 -17 65 -18 875 -21
630 -2 875 0 904 9 104 30 174 115 182 222 10 116 -33 200 -128 252 -46 25
-67 29 -139 32 -58 2 -98 -2 -125 -12z"/>
<path d="M16 1444 c-20 -20 -20 -38 0 -58 13 -13 43 -16 175 -16 92 0 169 4
180 10 21 12 25 50 7 68 -8 8 -63 12 -179 12 -139 0 -170 -3 -183 -16z"/>
<path d="M10 785 c-10 -12 -10 -21 -2 -40 l12 -25 913 0 c1011 0 972 2 1060
-65 30 -23 55 -55 76 -96 28 -56 31 -71 31 -153 0 -106 -23 -168 -85 -231 -65
-65 -123 -85 -245 -85 -126 0 -181 21 -246 92 -52 56 -73 112 -82 217 -8 91
-24 117 -59 95 -15 -10 -18 -27 -18 -110 0 -86 4 -107 27 -157 38 -80 114
-158 191 -193 80 -36 219 -45 317 -20 168 43 276 179 288 362 12 194 -85 348
-257 409 -38 13 -165 15 -976 15 -825 0 -934 -2 -945 -15z"/>
<path d="M12 618 c-15 -15 -15 -41 0 -56 9 -9 136 -12 508 -12 494 0 496 0
540 -22 77 -39 103 -130 57 -199 -44 -67 -140 -88 -224 -50 -44 21 -63 45 -63
84 0 31 -22 50 -52 45 -20 -3 -23 -9 -26 -53 -4 -67 25 -110 100 -148 67 -35
168 -40 233 -13 178 75 187 324 14 410 l-53 26 -511 0 c-384 0 -514 -3 -523
-12z"/>
<path d="M16 464 c-20 -20 -20 -38 0 -58 23 -24 515 -24 538 0 20 20 20 38 0
58 -23 24 -515 24 -538 0z"/>
</g>
</svg>
