<?xml version="1.0" standalone="no"?>
<!DOCTYPE svg PUBLIC "-//W3C//DTD SVG 20010904//EN"
 "http://www.w3.org/TR/2001/REC-SVG-20010904/DTD/svg10.dtd">
<svg version="1.0" xmlns="http://www.w3.org/2000/svg"
 width="1200.000000pt" height="630.000000pt" viewBox="0 0 1200.000000 630.000000"
 preserveAspectRatio="xMidYMid meet">

<g transform="translate(0.000000,630.000000) scale(0.100000,-0.100000)"
fill="#000000" stroke="none">
<path d="M7742 5763 l3 -217 130 -32 c325 -80 516 -201 632 -399 68 -115 95
-217 100 -375 6 -153 -3 -218 -46 -323 -42 -105 -93 -180 -185 -273 -200 -199
-448 -305 -786 -334 -71 -6 -819 -10 -1966 -10 l-1850 0 -53 -26 c-159 -80
-151 -310 14 -385 38 -18 128 -19 2075 -19 2111 0 2111 0 2260 40 222 58 429
178 595 345 392 393 494 977 259 1474 -147 311 -422 562 -742 676 -124 44
-283 74 -390 75 l-52 0 2 -217z"/>
<path d="M4809 4647 c-53 -28 -103 -98 -113 -156 -15 -97 58 -215 149 -240 28
-8 441 -11 1381 -11 l1340 0 55 28 c128 64 159 223 66 329 -18 20 -50 44 -72
54 -38 18 -106 19 -1401 19 l-1361 0 -44 -23z"/>
<path d="M3073 2905 c-58 -26 -107 -90 -119 -152 -17 -90 32 -188 116 -230
l44 -23 2181 0 c1365 0 2223 -4 2295 -10 259 -23 463 -90 645 -213 80 -54 212
-188 259 -261 47 -73 93 -187 107 -264 7 -32 9 -110 6 -177 -6 -139 -33 -234
-100 -350 -156 -267 -528 -439 -1001 -461 -61 -3 -130 -7 -153 -10 l-43 -5 0
-215 0 -214 268 0 c326 0 429 13 604 75 177 63 345 171 483 310 446 447 510
1125 157 1654 -74 111 -234 271 -342 343 -135 88 -274 152 -410 188 -150 40
-133 40 -2585 40 l-2360 0 -52 -25z"/>
<path d="M4165 2036 c-59 -27 -77 -46 -104 -106 -50 -109 -3 -231 109 -284 45
-21 53 -21 990 -26 718 -4 954 -9 982 -18 56 -19 151 -87 192 -137 142 -173
130 -423 -28 -581 -66 -65 -157 -111 -242 -122 l-59 -7 -3 -219 -2 -219 78 7
c352 29 658 280 757 621 32 108 43 267 26 372 -46 298 -241 550 -519 672 -155
68 -96 65 -1162 68 l-965 3 -50 -24z"/>
</g>
</svg>
